<svg width="166" height="70" viewBox="0 0 166 70" fill="none" xmlns="http://www.w3.org/2000/svg">
<path d="M12 0H31.1236L35 15H12V0Z" fill="#145DAB"/>
<path d="M0 70H46.1236L50 55H0V70Z" fill="#145DAB"/>
<path d="M31 0L47 15H35L31 0Z" fill="#0E4279"/>
<path d="M46 70L62 55H50L46 70Z" fill="#0E4279"/>
<path d="M12 15H166V55H12V15Z" fill="#6186BD"/>
<path d="M64.1477 41V29.3636H68.5114C69.4053 29.3636 70.1553 29.5189 70.7614 29.8295C71.3712 30.1402 71.8314 30.5758 72.142 31.1364C72.4564 31.6932 72.6136 32.3428 72.6136 33.0852C72.6136 33.8314 72.4545 34.4792 72.1364 35.0284C71.822 35.5739 71.358 35.9962 70.7443 36.2955C70.1307 36.5909 69.3769 36.7386 68.483 36.7386H65.375V34.9886H68.1989C68.7216 34.9886 69.1496 34.9167 69.483 34.7727C69.8163 34.625 70.0625 34.411 70.2216 34.1307C70.3845 33.8466 70.4659 33.4981 70.4659 33.0852C70.4659 32.6723 70.3845 32.3201 70.2216 32.0284C70.0587 31.733 69.8106 31.5095 69.4773 31.358C69.1439 31.2027 68.714 31.125 68.1875 31.125H66.2557V41H64.1477ZM70.1591 35.7273L73.0398 41H70.6875L67.858 35.7273H70.1591ZM78.2017 41.1705C77.3267 41.1705 76.571 40.9886 75.9347 40.625C75.3021 40.2576 74.8153 39.7386 74.4744 39.0682C74.1335 38.3939 73.9631 37.6004 73.9631 36.6875C73.9631 35.7898 74.1335 35.0019 74.4744 34.3239C74.8191 33.642 75.3002 33.1117 75.9176 32.733C76.535 32.3504 77.2604 32.1591 78.0938 32.1591C78.6316 32.1591 79.1392 32.2462 79.6165 32.4205C80.0975 32.5909 80.5218 32.8561 80.8892 33.2159C81.2604 33.5758 81.5521 34.0341 81.7642 34.5909C81.9763 35.1439 82.0824 35.803 82.0824 36.5682V37.1989H74.929V35.8125H80.1108C80.107 35.4186 80.0218 35.0682 79.8551 34.7614C79.6884 34.4508 79.4555 34.2064 79.1562 34.0284C78.8608 33.8504 78.5161 33.7614 78.1222 33.7614C77.7017 33.7614 77.3324 33.8636 77.0142 34.0682C76.696 34.2689 76.4479 34.5341 76.2699 34.8636C76.0956 35.1894 76.0066 35.5473 76.0028 35.9375V37.1477C76.0028 37.6553 76.0956 38.0909 76.2812 38.4545C76.4669 38.8144 76.7263 39.0909 77.0597 39.2841C77.393 39.4735 77.7831 39.5682 78.2301 39.5682C78.5294 39.5682 78.8002 39.5265 79.0426 39.4432C79.285 39.3561 79.4953 39.2292 79.6733 39.0625C79.8513 38.8958 79.9858 38.6894 80.0767 38.4432L81.9972 38.6591C81.8759 39.1667 81.6449 39.6098 81.304 39.9886C80.9669 40.3636 80.535 40.6553 80.0085 40.8636C79.482 41.0682 78.8797 41.1705 78.2017 41.1705ZM86.3338 41.1761C85.7808 41.1761 85.2827 41.0777 84.8395 40.8807C84.4001 40.6799 84.0516 40.3845 83.794 39.9943C83.5402 39.6042 83.4134 39.1231 83.4134 38.5511C83.4134 38.0587 83.5043 37.6515 83.6861 37.3295C83.8679 37.0076 84.116 36.75 84.4304 36.5568C84.7448 36.3636 85.099 36.2178 85.4929 36.1193C85.8906 36.017 86.3016 35.9432 86.7259 35.8977C87.2372 35.8447 87.652 35.7973 87.9702 35.7557C88.2884 35.7102 88.5194 35.642 88.6634 35.5511C88.8111 35.4564 88.8849 35.3106 88.8849 35.1136V35.0795C88.8849 34.6515 88.758 34.3201 88.5043 34.0852C88.2505 33.8504 87.8849 33.733 87.4077 33.733C86.9039 33.733 86.5043 33.8428 86.2088 34.0625C85.9171 34.2822 85.7202 34.5417 85.6179 34.8409L83.6974 34.5682C83.849 34.0379 84.099 33.5947 84.4474 33.2386C84.7959 32.8788 85.2221 32.6098 85.7259 32.4318C86.2296 32.25 86.7865 32.1591 87.3963 32.1591C87.8168 32.1591 88.2353 32.2083 88.652 32.3068C89.0687 32.4053 89.4493 32.5682 89.794 32.7955C90.1387 33.0189 90.4152 33.3239 90.6236 33.7102C90.8357 34.0966 90.9418 34.5795 90.9418 35.1591V41H88.9645V39.8011H88.8963C88.7713 40.0436 88.5952 40.2708 88.3679 40.483C88.1444 40.6913 87.8622 40.8598 87.5213 40.9886C87.1842 41.1136 86.7884 41.1761 86.3338 41.1761ZM86.8679 39.6648C87.2808 39.6648 87.6387 39.5833 87.9418 39.4205C88.2448 39.2538 88.4777 39.0341 88.6406 38.7614C88.8073 38.4886 88.8906 38.1913 88.8906 37.8693V36.8409C88.8262 36.8939 88.7164 36.9432 88.5611 36.9886C88.4096 37.0341 88.2391 37.0739 88.0497 37.108C87.8603 37.142 87.6728 37.1723 87.4872 37.1989C87.3016 37.2254 87.1406 37.2481 87.0043 37.267C86.6974 37.3087 86.4228 37.3769 86.1804 37.4716C85.938 37.5663 85.7467 37.6989 85.6065 37.8693C85.4664 38.036 85.3963 38.2519 85.3963 38.517C85.3963 38.8958 85.5346 39.1818 85.8111 39.375C86.0876 39.5682 86.4399 39.6648 86.8679 39.6648ZM96.2486 41.1534C95.563 41.1534 94.9493 40.9773 94.4077 40.625C93.866 40.2727 93.438 39.7614 93.1236 39.0909C92.8092 38.4205 92.652 37.6061 92.652 36.6477C92.652 35.678 92.8111 34.8598 93.1293 34.1932C93.4512 33.5227 93.8849 33.017 94.4304 32.6761C94.9759 32.3314 95.5838 32.1591 96.2543 32.1591C96.7656 32.1591 97.1861 32.2462 97.5156 32.4205C97.8452 32.5909 98.1065 32.7973 98.2997 33.0398C98.4929 33.2784 98.6425 33.5038 98.7486 33.7159H98.8338V29.3636H100.896V41H98.8736V39.625H98.7486C98.6425 39.8371 98.4891 40.0625 98.2884 40.3011C98.0876 40.536 97.8224 40.7367 97.4929 40.9034C97.1634 41.0701 96.7486 41.1534 96.2486 41.1534ZM96.8224 39.4659C97.258 39.4659 97.6293 39.3485 97.9361 39.1136C98.2429 38.875 98.4759 38.5436 98.6349 38.1193C98.794 37.6951 98.8736 37.2008 98.8736 36.6364C98.8736 36.072 98.794 35.5814 98.6349 35.1648C98.4796 34.7481 98.2486 34.4242 97.9418 34.1932C97.6387 33.9621 97.2656 33.8466 96.8224 33.8466C96.3641 33.8466 95.9815 33.9659 95.6747 34.2045C95.3679 34.4432 95.1368 34.7727 94.9815 35.1932C94.8262 35.6136 94.7486 36.0947 94.7486 36.6364C94.7486 37.1818 94.8262 37.6686 94.9815 38.0966C95.1406 38.5208 95.3736 38.8561 95.6804 39.1023C95.991 39.3447 96.3717 39.4659 96.8224 39.4659ZM107.148 29.3636H109.727L113.182 37.7955H113.318L116.773 29.3636H119.352V41H117.33V33.0057H117.222L114.006 40.9659H112.494L109.278 32.9886H109.17V41H107.148V29.3636ZM125.364 41.1705C124.511 41.1705 123.773 40.983 123.148 40.608C122.523 40.233 122.038 39.7083 121.693 39.0341C121.352 38.3598 121.182 37.572 121.182 36.6705C121.182 35.7689 121.352 34.9792 121.693 34.3011C122.038 33.6231 122.523 33.0966 123.148 32.7216C123.773 32.3466 124.511 32.1591 125.364 32.1591C126.216 32.1591 126.955 32.3466 127.58 32.7216C128.205 33.0966 128.688 33.6231 129.028 34.3011C129.373 34.9792 129.545 35.7689 129.545 36.6705C129.545 37.572 129.373 38.3598 129.028 39.0341C128.688 39.7083 128.205 40.233 127.58 40.608C126.955 40.983 126.216 41.1705 125.364 41.1705ZM125.375 39.5227C125.837 39.5227 126.223 39.3958 126.534 39.142C126.845 38.8845 127.076 38.5398 127.227 38.108C127.383 37.6761 127.46 37.1951 127.46 36.6648C127.46 36.1307 127.383 35.6477 127.227 35.2159C127.076 34.7803 126.845 34.4337 126.534 34.1761C126.223 33.9186 125.837 33.7898 125.375 33.7898C124.902 33.7898 124.508 33.9186 124.193 34.1761C123.883 34.4337 123.65 34.7803 123.494 35.2159C123.343 35.6477 123.267 36.1307 123.267 36.6648C123.267 37.1951 123.343 37.6761 123.494 38.108C123.65 38.5398 123.883 38.8845 124.193 39.142C124.508 39.3958 124.902 39.5227 125.375 39.5227ZM131.291 41V32.2727H133.286V33.7273H133.376C133.536 33.2235 133.808 32.8352 134.195 32.5625C134.585 32.286 135.03 32.1477 135.53 32.1477C135.643 32.1477 135.77 32.1534 135.911 32.1648C136.054 32.1723 136.174 32.1856 136.268 32.2045V34.0966C136.181 34.0663 136.043 34.0398 135.854 34.017C135.668 33.9905 135.488 33.9773 135.314 33.9773C134.939 33.9773 134.602 34.0587 134.303 34.2216C134.007 34.3807 133.774 34.6023 133.604 34.8864C133.433 35.1705 133.348 35.4981 133.348 35.8693V41H131.291ZM141.139 41.1705C140.264 41.1705 139.509 40.9886 138.872 40.625C138.24 40.2576 137.753 39.7386 137.412 39.0682C137.071 38.3939 136.901 37.6004 136.901 36.6875C136.901 35.7898 137.071 35.0019 137.412 34.3239C137.757 33.642 138.238 33.1117 138.855 32.733C139.473 32.3504 140.198 32.1591 141.031 32.1591C141.569 32.1591 142.077 32.2462 142.554 32.4205C143.035 32.5909 143.459 32.8561 143.827 33.2159C144.198 33.5758 144.49 34.0341 144.702 34.5909C144.914 35.1439 145.02 35.803 145.02 36.5682V37.1989H137.866V35.8125H143.048C143.045 35.4186 142.959 35.0682 142.793 34.7614C142.626 34.4508 142.393 34.2064 142.094 34.0284C141.798 33.8504 141.454 33.7614 141.06 33.7614C140.639 33.7614 140.27 33.8636 139.952 34.0682C139.634 34.2689 139.385 34.5341 139.207 34.8636C139.033 35.1894 138.944 35.5473 138.94 35.9375V37.1477C138.94 37.6553 139.033 38.0909 139.219 38.4545C139.404 38.8144 139.664 39.0909 139.997 39.2841C140.33 39.4735 140.721 39.5682 141.168 39.5682C141.467 39.5682 141.738 39.5265 141.98 39.4432C142.223 39.3561 142.433 39.2292 142.611 39.0625C142.789 38.8958 142.923 38.6894 143.014 38.4432L144.935 38.6591C144.813 39.1667 144.582 39.6098 144.241 39.9886C143.904 40.3636 143.473 40.6553 142.946 40.8636C142.42 41.0682 141.817 41.1705 141.139 41.1705Z" fill="white"/>
<path d="M50 55L35 15H12V55H50Z" fill="#0E4279"/>
<path d="M0 55L0 0H12L12 55H0Z" fill="#145DAB"/>
</svg>
