<svg width="167" height="35" viewBox="0 0 167 35" fill="none" xmlns="http://www.w3.org/2000/svg">
<path d="M99.248 6.3H84.2V2.443C84.2003 2.12209 84.1373 1.80426 84.0146 1.50772C83.8919 1.21118 83.712 0.941745 83.4851 0.714831C83.2581 0.487917 82.9887 0.307982 82.6921 0.185323C82.3956 0.0626634 82.0778 -0.000311894 81.7568 1.16145e-06H68.4428C68.1219 -0.000276096 67.8041 0.062726 67.5076 0.185402C67.2111 0.308078 66.9417 0.488021 66.7148 0.714932C66.4879 0.941843 66.308 1.21127 66.1853 1.50779C66.0627 1.80431 65.9997 2.12211 66 2.443V32.557C66.0006 33.2047 66.2581 33.8257 66.7161 34.2838C67.1741 34.7418 67.7951 34.9994 68.4428 35H81.7568C82.4046 34.9995 83.0257 34.7419 83.4837 34.2839C83.9418 33.8258 84.1994 33.2048 84.2 32.557V20.3H99.2482C99.7128 20.3 100.158 20.1154 100.487 19.7869C100.815 19.4584 101 19.0128 101 18.5482V8.05202C101 7.82194 100.955 7.59411 100.867 7.38155C100.779 7.16898 100.65 6.97584 100.487 6.81315C100.324 6.65046 100.131 6.52141 99.9185 6.43336C99.7059 6.34532 99.4781 6.3 99.248 6.3ZM73.35 1.484H76.85C77.0821 1.484 77.3046 1.57619 77.4687 1.74028C77.6328 1.90438 77.725 2.12694 77.725 2.359C77.725 2.59107 77.6328 2.81363 77.4687 2.97772C77.3046 3.14181 77.0821 3.234 76.85 3.234H73.35C73.1179 3.234 72.8954 3.14181 72.7313 2.97772C72.5672 2.81363 72.475 2.59107 72.475 2.359C72.475 2.12694 72.5672 1.90438 72.7313 1.74028C72.8954 1.57619 73.1179 1.484 73.35 1.484ZM76.8497 33.5102H73.3497C73.1176 33.5102 72.895 33.418 72.7309 33.2539C72.5668 33.0898 72.4747 32.8672 72.4747 32.6352C72.4747 32.4031 72.5668 32.1806 72.7309 32.0165C72.895 31.8524 73.1176 31.7602 73.3497 31.7602H76.8497C77.0817 31.7602 77.3043 31.8524 77.4684 32.0165C77.6325 32.1806 77.7247 32.4031 77.7247 32.6352C77.7247 32.8672 77.6325 33.0898 77.4684 33.2539C77.3043 33.418 77.0817 33.5102 76.8497 33.5102ZM82.6599 30.275H67.5398V4.725H82.6599V6.3H73.3356C72.8753 6.3 72.4338 6.48286 72.1083 6.80835C71.7829 7.13384 71.6 7.57529 71.6 8.0356V18.5628C71.6 18.7909 71.6449 19.0168 71.7322 19.2276C71.8195 19.4384 71.9475 19.6299 72.1088 19.7912C72.2701 19.9525 72.4617 20.0805 72.6724 20.1678C72.8832 20.2551 73.1091 20.3 73.3372 20.3H76.5V23.1116C76.5 23.2827 76.5507 23.4499 76.6458 23.5922C76.7408 23.7344 76.876 23.8453 77.034 23.9108C77.1921 23.9763 77.366 23.9934 77.5338 23.96C77.7016 23.9266 77.8558 23.8442 77.9768 23.7233L81.4 20.3H82.6599V30.275ZM80.7629 13.937C80.9637 14.0536 81.1102 14.2449 81.1706 14.4691C81.2309 14.6934 81.2001 14.9324 81.0849 15.134C81.0279 15.2343 80.9517 15.3223 80.8605 15.3928C80.7693 15.4634 80.665 15.5152 80.5537 15.5451C80.4423 15.5751 80.3261 15.5826 80.2118 15.5673C80.0975 15.552 79.9874 15.5142 79.8879 15.456L78.775 14.812V16.1C78.775 16.3321 78.6828 16.5546 78.5187 16.7187C78.3546 16.8828 78.1321 16.975 77.9 16.975C77.6679 16.975 77.4454 16.8828 77.2813 16.7187C77.1172 16.5546 77.025 16.3321 77.025 16.1V14.812L75.9118 15.456C75.8122 15.5142 75.7021 15.552 75.5878 15.5673C75.4735 15.5826 75.3573 15.5751 75.246 15.5451C75.1346 15.5152 75.0303 15.4634 74.9391 15.3928C74.848 15.3223 74.7717 15.2343 74.7148 15.134C74.5997 14.9323 74.569 14.6934 74.6293 14.4692C74.6896 14.245 74.8361 14.0537 75.0368 13.937L76.15 13.3L75.0368 12.656C74.8353 12.54 74.6883 12.3487 74.6279 12.1242C74.5675 11.8997 74.5988 11.6605 74.7148 11.459C74.8308 11.2576 75.0221 11.1105 75.2466 11.0501C75.4711 10.9898 75.7103 11.021 75.9118 11.1371L77.025 11.781V10.5C77.025 10.2679 77.1172 10.0454 77.2813 9.88128C77.4454 9.71719 77.6679 9.625 77.9 9.625C78.1321 9.625 78.3546 9.71719 78.5187 9.88128C78.6828 10.0454 78.775 10.2679 78.775 10.5V11.781L79.8879 11.1371C80.0893 11.021 80.3286 10.9898 80.5531 11.0501C80.7775 11.1105 80.9688 11.2576 81.0849 11.459C81.2009 11.6605 81.2322 11.8997 81.1718 12.1242C81.1114 12.3487 80.9643 12.54 80.7629 12.656L79.65 13.3L80.7629 13.937ZM89.1629 13.937C89.3637 14.0536 89.5102 14.2449 89.5706 14.4691C89.6309 14.6934 89.6001 14.9324 89.4849 15.134C89.4279 15.2343 89.3517 15.3223 89.2605 15.3928C89.1693 15.4634 89.065 15.5152 88.9537 15.5451C88.8423 15.5751 88.7261 15.5826 88.6118 15.5673C88.4975 15.552 88.3874 15.5142 88.2879 15.456L87.175 14.812V16.1C87.175 16.3321 87.0828 16.5546 86.9187 16.7187C86.7546 16.8828 86.5321 16.975 86.3 16.975C86.0679 16.975 85.8454 16.8828 85.6813 16.7187C85.5172 16.5546 85.425 16.3321 85.425 16.1V14.812L84.3118 15.456C84.2122 15.5142 84.1021 15.552 83.9878 15.5673C83.8735 15.5826 83.7573 15.5751 83.646 15.5451C83.5346 15.5152 83.4303 15.4634 83.3391 15.3928C83.248 15.3223 83.1717 15.2343 83.1148 15.134C82.9997 14.9323 82.969 14.6934 83.0293 14.4692C83.0896 14.245 83.2361 14.0537 83.4368 13.937L84.55 13.3L83.4368 12.656C83.2353 12.54 83.0883 12.3487 83.0279 12.1242C82.9675 11.8997 82.9988 11.6605 83.1148 11.459C83.2308 11.2576 83.4221 11.1105 83.6466 11.0501C83.8711 10.9898 84.1103 11.021 84.3118 11.1371L85.425 11.781V10.5C85.425 10.2679 85.5172 10.0454 85.6813 9.88128C85.8454 9.71719 86.0679 9.625 86.3 9.625C86.5321 9.625 86.7546 9.71719 86.9187 9.88128C87.0828 10.0454 87.175 10.2679 87.175 10.5V11.781L88.2879 11.1371C88.4893 11.021 88.7286 10.9898 88.9531 11.0501C89.1775 11.1105 89.3688 11.2576 89.4849 11.459C89.6009 11.6605 89.6322 11.8997 89.5718 12.1242C89.5114 12.3487 89.3643 12.54 89.1629 12.656L88.05 13.3L89.1629 13.937ZM97.5629 13.937C97.7637 14.0536 97.9102 14.2449 97.9706 14.4691C98.0309 14.6934 98.0001 14.9324 97.8849 15.134C97.8279 15.2343 97.7517 15.3223 97.6605 15.3928C97.5693 15.4634 97.465 15.5152 97.3537 15.5451C97.2423 15.5751 97.1261 15.5826 97.0118 15.5673C96.8975 15.552 96.7874 15.5142 96.6879 15.456L95.575 14.812V16.1C95.575 16.3321 95.4828 16.5546 95.3187 16.7187C95.1546 16.8828 94.9321 16.975 94.7 16.975C94.4679 16.975 94.2454 16.8828 94.0813 16.7187C93.9172 16.5546 93.825 16.3321 93.825 16.1V14.812L92.7118 15.456C92.6122 15.5142 92.5021 15.552 92.3878 15.5673C92.2735 15.5826 92.1573 15.5751 92.046 15.5451C91.9346 15.5152 91.8303 15.4634 91.7391 15.3928C91.648 15.3223 91.5717 15.2343 91.5148 15.134C91.3997 14.9323 91.369 14.6934 91.4293 14.4692C91.4896 14.245 91.6361 14.0537 91.8368 13.937L92.95 13.3L91.8368 12.656C91.6353 12.54 91.4883 12.3487 91.4279 12.1242C91.3675 11.8997 91.3988 11.6605 91.5148 11.459C91.6308 11.2576 91.8221 11.1105 92.0466 11.0501C92.2711 10.9898 92.5103 11.021 92.7118 11.1371L93.825 11.781V10.5C93.825 10.2679 93.9172 10.0454 94.0813 9.88128C94.2454 9.71719 94.4679 9.625 94.7 9.625C94.9321 9.625 95.1546 9.71719 95.3187 9.88128C95.4828 10.0454 95.575 10.2679 95.575 10.5V11.781L96.6879 11.1371C96.7876 11.0796 96.8977 11.0424 97.0118 11.0274C97.126 11.0125 97.2419 11.0202 97.3531 11.0501C97.4642 11.08 97.5684 11.1315 97.6596 11.2017C97.7509 11.2719 97.8274 11.3593 97.8849 11.459C97.9423 11.5588 97.9796 11.6688 97.9945 11.783C98.0094 11.8971 98.0017 12.013 97.9718 12.1242C97.9419 12.2353 97.8904 12.3395 97.8202 12.4308C97.7501 12.522 97.6626 12.5985 97.5629 12.656L96.45 13.3L97.5629 13.937Z" fill="white"/>
<rect x="111" y="14" width="56" height="2" rx="1" fill="white"/>
<rect y="14" width="56" height="2" rx="1" fill="white"/>
</svg>
