<svg width="50" height="50" viewBox="0 0 50 50" fill="none" xmlns="http://www.w3.org/2000/svg">
<path d="M24.818 11.9C17.818 11.9 12.018 17.6 12.018 24.7C12.018 31.8 17.718 37.5 24.818 37.5C31.918 37.5 37.618 31.7 37.618 24.7C37.618 17.7 31.818 11.9 24.818 11.9ZM24.818 32.9C20.318 32.9 16.618 29.2 16.618 24.7C16.618 20.2 20.318 16.5 24.818 16.5C29.318 16.5 33.018 20.2 33.018 24.7C33.018 29.2 29.318 32.9 24.818 32.9Z" fill="white"/>
<path d="M38.118 14.5C39.7196 14.5 41.018 13.2016 41.018 11.6C41.018 9.99837 39.7196 8.7 38.118 8.7C36.5164 8.7 35.218 9.99837 35.218 11.6C35.218 13.2016 36.5164 14.5 38.118 14.5Z" fill="white"/>
<path d="M45.618 4.1C43.018 1.4 39.318 0 35.118 0H14.518C5.81801 0 0.0180054 5.8 0.0180054 14.5V35C0.0180054 39.3 1.41801 43 4.21801 45.7C6.91801 48.3 10.518 49.6 14.618 49.6H35.018C39.318 49.6 42.918 48.2 45.518 45.7C48.218 43.1 49.618 39.4 49.618 35.1V14.5C49.618 10.3 48.218 6.7 45.618 4.1ZM45.218 35.1C45.218 38.2 44.118 40.7 42.318 42.4C40.518 44.1 38.018 45 35.018 45H14.618C11.618 45 9.11801 44.1 7.31801 42.4C5.51801 40.6 4.61801 38.1 4.61801 35V14.5C4.61801 11.5 5.51801 9 7.31801 7.2C9.01801 5.5 11.618 4.6 14.618 4.6H35.218C38.218 4.6 40.718 5.5 42.518 7.3C44.218 9.1 45.218 11.6 45.218 14.5V35.1Z" fill="white"/>
</svg>
