<svg width="46" height="35" viewBox="0 0 46 35" fill="none" xmlns="http://www.w3.org/2000/svg">
<path d="M0 7.5L23.5 0L46 7V10H44V17H42V32H45V35H2V32H4V17H2V10H0V7.5Z" fill="#686868"/>
<path d="M29.6094 20.4289L26.3117 19.0226C26.1416 18.9463 25.9548 18.9147 25.769 18.9307C25.5832 18.9467 25.4046 19.0098 25.25 19.114L23.4852 20.2882C22.4096 19.7658 21.5387 18.8999 21.0102 17.8273L22.1773 16.0414C22.2809 15.8866 22.3441 15.7084 22.3613 15.523C22.3785 15.3376 22.3491 15.1508 22.2758 14.9796L20.8625 11.682C20.7639 11.4593 20.5969 11.2738 20.3858 11.1525C20.1746 11.0311 19.9303 10.9801 19.6883 11.007C18.7388 11.1314 17.8667 11.5963 17.2343 12.3154C16.6019 13.0345 16.2521 13.9587 16.25 14.9164C16.25 20.4992 20.7922 25.0414 26.375 25.0414C27.3326 25.0392 28.2569 24.6895 28.976 24.057C29.695 23.4246 30.16 22.5526 30.2844 21.6031C30.3112 21.361 30.2603 21.1167 30.1389 20.9056C30.0175 20.6945 29.832 20.5275 29.6094 20.4289Z" fill="white"/>
<path d="M25.0672 12.6453C25.9234 12.8792 26.7038 13.3323 27.3314 13.9599C27.959 14.5875 28.4122 15.368 28.6461 16.2242C28.6771 16.3444 28.747 16.4509 28.845 16.5273C28.9429 16.6036 29.0633 16.6453 29.1875 16.646C29.2374 16.646 29.2871 16.6389 29.3351 16.625C29.4066 16.6062 29.4737 16.5735 29.5324 16.5285C29.591 16.4835 29.6401 16.4273 29.6768 16.3632C29.7135 16.299 29.737 16.2281 29.7459 16.1548C29.7549 16.0814 29.7491 16.007 29.7289 15.9359C29.4477 14.8873 28.8955 13.9312 28.1278 13.1635C27.3602 12.3959 26.404 11.8437 25.3554 11.5625C25.2821 11.5357 25.2039 11.5246 25.126 11.5297C25.0481 11.5348 24.9721 11.5561 24.9028 11.5922C24.8336 11.6283 24.7726 11.6784 24.7238 11.7394C24.675 11.8003 24.6394 11.8708 24.6193 11.9463C24.5992 12.0217 24.5951 12.1005 24.6071 12.1777C24.6192 12.2549 24.6471 12.3287 24.6893 12.3944C24.7314 12.4602 24.7867 12.5164 24.8518 12.5596C24.9169 12.6028 24.9902 12.632 25.0672 12.6453Z" fill="white"/>
<path d="M24.4836 14.8179C24.9595 14.9482 25.3933 15.2002 25.7422 15.5491C26.0912 15.898 26.3432 16.3318 26.4735 16.8078C26.5034 16.9286 26.573 17.0358 26.6712 17.1123C26.7694 17.1888 26.8904 17.2301 27.0149 17.2296C27.0626 17.2301 27.11 17.223 27.1555 17.2085C27.2276 17.1906 27.2954 17.1584 27.3549 17.1137C27.4143 17.0691 27.4642 17.013 27.5016 16.9488C27.539 16.8845 27.5631 16.8134 27.5725 16.7397C27.5818 16.6659 27.5763 16.5911 27.5563 16.5195C27.3787 15.8512 27.0276 15.2417 26.5387 14.7527C26.0497 14.2637 25.4402 13.9127 24.7719 13.7351C24.6985 13.7084 24.6204 13.6972 24.5425 13.7023C24.4645 13.7075 24.3885 13.7287 24.3193 13.7649C24.25 13.801 24.1891 13.8511 24.1403 13.912C24.0915 13.973 24.0559 14.0434 24.0358 14.1189C24.0157 14.1944 24.0115 14.2732 24.0236 14.3503C24.0356 14.4275 24.0636 14.5013 24.1057 14.5671C24.1478 14.6328 24.2032 14.6891 24.2683 14.7323C24.3333 14.7755 24.4067 14.8046 24.4836 14.8179Z" fill="white"/>
</svg>
