<svg width="50" height="41" viewBox="0 0 50 41" fill="none" xmlns="http://www.w3.org/2000/svg">
<path d="M49.263 4.739C47.452 5.544 45.503 6.087 43.458 6.33C45.546 5.08 47.147 3.1 47.902 0.738C45.949 1.897 43.787 2.738 41.484 3.192C39.641 1.228 37.014 0 34.107 0C28.526 0 24.001 4.525 24.001 10.107C24.001 10.898 24.09 11.669 24.263 12.41C15.863 11.988 8.415 7.965 3.43 1.85C2.56 3.342 2.062 5.078 2.062 6.932C2.062 10.438 3.846 13.532 6.558 15.344C4.902 15.291 3.343 14.836 1.98 14.079C1.979 14.121 1.979 14.164 1.979 14.207C1.979 19.103 5.463 23.187 10.087 24.117C9.239 24.347 8.346 24.471 7.424 24.471C6.772 24.471 6.139 24.408 5.522 24.289C6.809 28.304 10.541 31.227 14.963 31.308C11.504 34.019 7.147 35.635 2.411 35.635C1.596 35.635 0.791 35.587 0 35.493C4.474 38.362 9.786 40.034 15.493 40.034C34.084 40.034 44.249 24.634 44.249 11.278C44.249 10.84 44.24 10.403 44.221 9.969C46.195 8.547 47.909 6.766 49.263 4.739Z" fill="white"/>
</svg>
