<svg width="152" height="25" viewBox="0 0 152 25" fill="none" xmlns="http://www.w3.org/2000/svg">
<path d="M84 11H80H72V8.19999C72 6.09999 73.5 4.19999 75.6 3.99999C78 3.79999 80 5.69999 80 7.99999C80 8.59999 80.4 8.99999 81 8.99999H82C82.6 8.99999 83 8.59999 83 7.99999C83 4.19999 80 1.09999 76.2 0.999993C72.3 0.899993 69 4.09999 69 7.99999V11H68C66.9 11 66 11.9 66 13V20C66 22.8 68.2 25 71 25H81C83.8 25 86 22.8 86 20V13C86 11.9 85.1 11 84 11ZM77 18.7V20C77 20.5 76.5 21 76 21C75.5 21 75 20.5 75 20V18.7C74.4 18.4 74 17.7 74 17C74 15.9 74.9 15 76 15C77.1 15 78 15.9 78 17C78 17.7 77.6 18.4 77 18.7Z" fill="white"/>
<rect x="96" y="12" width="56" height="2" rx="1" fill="white"/>
<rect y="12" width="56" height="2" rx="1" fill="white"/>
</svg>
