<svg width="167" height="35" viewBox="0 0 167 35" fill="none" xmlns="http://www.w3.org/2000/svg">
<rect x="111" y="16" width="56" height="2" rx="1" fill="white"/>
<rect y="16" width="56" height="2" rx="1" fill="white"/>
<path d="M100.232 21.0368C100.232 19.8211 99.2368 18.8632 98.0579 18.8632C97.2842 18.8632 96.5842 19.2684 96.2158 19.8947V19.8211C96.2158 18.6053 95.2211 17.6474 94.0421 17.6474C93.2684 17.6474 92.5684 18.0526 92.2 18.679V18.6053C92.2 17.3895 91.2053 16.4316 90.0263 16.4316C89.2526 16.4316 88.5526 16.8368 88.1842 17.4632V10.1316C88.1842 9.54211 87.9632 8.98948 87.5579 8.58421C87.1526 8.17895 86.6 7.9579 86.0105 7.9579C84.7947 7.9579 83.8368 8.95264 83.8368 10.1316V24.3895C83.8368 24.5 83.7632 24.6105 83.6526 24.6842C83.5421 24.7211 83.4316 24.7211 83.3211 24.6105L81.1105 22.4C80.3737 21.6632 79.1947 21.5526 78.3105 22.1421C77.7947 22.4737 77.4632 23.0263 77.3526 23.6526C77.279 24.2789 77.4263 24.9053 77.8316 25.3842L83.3211 32.0158C84.8684 33.8947 87.1895 35 89.6211 35H93.0474C94.9632 35 96.7684 34.2632 98.1316 32.9C99.4947 31.5368 100.232 29.7316 100.232 27.8158V21.0368Z" fill="white"/>
<path d="M81.3684 10.1316C81.3684 7.58947 83.4316 5.52631 85.9737 5.52631C87.1895 5.52631 88.3316 6.00526 89.2158 6.85263C90.1 7.73684 90.5789 8.87895 90.5789 10.0947V12.6H93.1947C94.3737 12.6 95.3316 11.6421 95.3316 10.4632V2.13684C95.3316 0.957895 94.3737 0 93.1947 0H69.1368C67.9579 0 67 0.957895 67 2.13684V10.5C67 11.6789 67.9579 12.6368 69.1368 12.6368H81.3684V10.1316ZM78.7526 5.15789L75.2526 8.91579C75.0684 9.13684 74.7737 9.24737 74.4789 9.24737C74.1842 9.24737 73.9263 9.13684 73.7053 8.91579L71.8632 6.92631C71.4579 6.48421 71.4947 5.82105 71.9368 5.41579C72.3789 5.04737 73.0421 5.04737 73.4474 5.48947L74.5158 6.66842L77.2421 3.72105C77.6474 3.27895 78.3105 3.27895 78.7526 3.64737C79.1211 4.05263 79.1579 4.71579 78.7526 5.15789Z" fill="white"/>
</svg>
