<svg width="50" height="50" viewBox="0 0 50 50" fill="none" xmlns="http://www.w3.org/2000/svg">
<path d="M24.625 0C11.026 0 0 11.023 0 24.625C0 34.707 6.063 43.369 14.739 47.178C14.67 45.457 14.727 43.395 15.168 41.524C15.641 39.524 18.336 28.106 18.336 28.106C18.336 28.106 17.549 26.534 17.549 24.21C17.549 20.562 19.664 17.837 22.298 17.837C24.538 17.837 25.62 19.519 25.62 21.532C25.62 23.784 24.183 27.151 23.445 30.27C22.829 32.883 24.755 35.014 27.332 35.014C31.997 35.014 35.14 29.022 35.14 21.922C35.14 16.525 31.505 12.485 24.894 12.485C17.424 12.485 12.771 18.055 12.771 24.277C12.771 26.423 13.404 27.935 14.395 29.107C14.85 29.644 14.914 29.861 14.749 30.478C14.631 30.931 14.36 32.023 14.248 32.455C14.084 33.08 13.579 33.303 13.015 33.072C9.575 31.668 7.972 27.9 7.972 23.664C7.972 16.67 13.871 8.282 25.571 8.282C34.971 8.282 41.159 15.086 41.159 22.389C41.159 32.047 35.79 39.264 27.874 39.264C25.215 39.264 22.714 37.826 21.858 36.196C21.858 36.196 20.428 41.87 20.126 42.964C19.604 44.864 18.581 46.761 17.647 48.239C19.862 48.893 22.201 49.249 24.626 49.249C38.224 49.249 49.249 38.226 49.249 24.626C49.248 11.023 38.222 0 24.625 0Z" fill="white"/>
</svg>
