<svg width="46" height="35" viewBox="0 0 46 35" fill="none" xmlns="http://www.w3.org/2000/svg">
<path d="M0 7.5L23.5 0L46 7V10H44V17H42V32H45V35H2V32H4V17H2V10H0V7.5Z" fill="#686868"/>
<path fill-rule="evenodd" clip-rule="evenodd" d="M27.9031 13.0345C26.5932 11.7232 24.8514 11.0008 22.9956 11C19.1718 11 16.0597 14.1119 16.0582 17.9369C16.0576 19.1596 16.3771 20.3531 16.9842 21.4051L16 25L19.6776 24.0353C20.6909 24.588 21.8318 24.8793 22.9929 24.8797H22.9957C22.9955 24.8797 22.9959 24.8797 22.9957 24.8797C26.8191 24.8797 29.9315 21.7675 29.9331 17.9424C29.9338 16.0887 29.2128 14.3458 27.9031 13.0345ZM22.9956 23.7081H22.9933C21.9587 23.7077 20.9439 23.4297 20.0586 22.9043L19.848 22.7794L17.6657 23.3518L18.2482 21.2241L18.1111 21.0059C17.5339 20.0879 17.2291 19.0268 17.2295 17.9373C17.2308 14.7581 19.8175 12.1717 22.998 12.1717C24.5381 12.1722 25.9859 12.7727 27.0745 13.8626C28.1631 14.9525 28.7623 16.4013 28.7617 17.9419C28.7604 21.1214 26.1738 23.7081 22.9956 23.7081Z" fill="white"/>
<path fill-rule="evenodd" clip-rule="evenodd" d="M26.1585 19.3896C25.9851 19.3028 25.1329 18.8835 24.974 18.8256C24.8151 18.7678 24.6995 18.7389 24.584 18.9124C24.4685 19.0859 24.1363 19.4764 24.0351 19.5921C23.934 19.7077 23.8329 19.7223 23.6596 19.6354C23.4863 19.5486 22.9277 19.3656 22.2656 18.7751C21.7503 18.3154 21.4024 17.7478 21.3013 17.5742C21.2002 17.4007 21.2905 17.3069 21.3773 17.2205C21.4553 17.1428 21.5507 17.018 21.6373 16.9168C21.724 16.8156 21.7529 16.7432 21.8107 16.6276C21.8685 16.5119 21.8396 16.4107 21.7962 16.3239C21.7529 16.2372 21.4062 15.384 21.2618 15.0368C21.121 14.6989 20.9782 14.7447 20.8717 14.7393C20.7708 14.7343 20.6551 14.7332 20.5395 14.7332C20.424 14.7332 20.2362 14.7766 20.0773 14.9501C19.9184 15.1237 19.4706 15.5431 19.4706 16.3962C19.4706 17.2494 20.0917 18.0737 20.1784 18.1893C20.265 18.3051 21.4007 20.0559 23.1396 20.8067C23.5531 20.9853 23.876 21.092 24.1277 21.1718C24.543 21.3038 24.9209 21.2852 25.2196 21.2405C25.5526 21.1908 26.2451 20.8212 26.3896 20.4164C26.534 20.0114 26.534 19.6643 26.4907 19.592C26.4474 19.5198 26.3318 19.4764 26.1585 19.3896Z" fill="white"/>
</svg>
