<svg width="135" height="129" viewBox="0 0 135 129" fill="none" xmlns="http://www.w3.org/2000/svg">
<path d="M1.71193 41.958H30.644V129H1.71193V41.958ZM16.3716 0C6.46939 0 0 6.4991 0 15.0294C0 23.3842 6.28007 30.0723 15.993 30.0723H16.1775C26.2691 30.0723 32.5536 23.3839 32.5536 15.0294C32.3643 6.4991 26.2694 0 16.3716 0ZM101.68 39.9133C86.3229 39.9133 79.4427 48.3581 75.6045 54.2804V41.958H46.6637C47.0469 50.1236 46.6637 129 46.6637 129H75.6045V80.3896C75.6045 77.7861 75.7938 75.1923 76.5553 73.3272C78.6507 68.1299 83.4123 62.7477 91.3995 62.7477C101.879 62.7477 106.064 70.7334 106.064 82.4292V129H135V79.0882C135 52.353 120.728 39.9133 101.68 39.9133Z" fill="white"/>
</svg>
