<svg width="400" height="143" viewBox="0 0 400 143" fill="none" xmlns="http://www.w3.org/2000/svg">
<path d="M0 143L131.085 0H400V143H0Z" fill="#B62832"/>
<path d="M146.347 83H139.643V64.0909H146.402C148.304 64.0909 149.941 64.4695 151.314 65.2266C152.687 65.9775 153.742 67.0578 154.481 68.4673C155.226 69.8769 155.598 71.5634 155.598 73.527C155.598 75.4967 155.226 77.1894 154.481 78.6051C153.742 80.0208 152.68 81.1072 151.295 81.8643C149.917 82.6214 148.267 83 146.347 83ZM143.641 79.5746H146.18C147.362 79.5746 148.356 79.3653 149.163 78.9467C149.975 78.522 150.585 77.8665 150.991 76.9801C151.403 76.0876 151.609 74.9366 151.609 73.527C151.609 72.1297 151.403 70.9879 150.991 70.1016C150.585 69.2152 149.978 68.5627 149.172 68.1442C148.366 67.7256 147.371 67.5163 146.19 67.5163H143.641V79.5746ZM164.949 83.277C163.49 83.277 162.234 82.9815 161.182 82.3906C160.135 81.7936 159.329 80.9503 158.763 79.8608C158.196 78.7652 157.913 77.4695 157.913 75.9737C157.913 74.5149 158.196 73.2346 158.763 72.1328C159.329 71.031 160.126 70.1723 161.154 69.5568C162.188 68.9413 163.401 68.6335 164.792 68.6335C165.727 68.6335 166.598 68.7843 167.405 69.0859C168.217 69.3814 168.925 69.8277 169.528 70.4247C170.138 71.0218 170.612 71.7727 170.95 72.6776C171.289 73.5762 171.458 74.6288 171.458 75.8352V76.9155H159.483V74.478H167.756C167.756 73.9117 167.632 73.41 167.386 72.973C167.14 72.536 166.798 72.1944 166.361 71.9482C165.93 71.6958 165.429 71.5696 164.856 71.5696C164.259 71.5696 163.73 71.7081 163.268 71.9851C162.813 72.2559 162.456 72.6222 162.197 73.0838C161.939 73.5393 161.806 74.0471 161.8 74.6072V76.9247C161.8 77.6264 161.93 78.2327 162.188 78.7436C162.453 79.2545 162.825 79.6484 163.305 79.9254C163.785 80.2024 164.355 80.3409 165.013 80.3409C165.45 80.3409 165.85 80.2794 166.214 80.1562C166.577 80.0331 166.888 79.8485 167.146 79.6023C167.405 79.3561 167.602 79.0545 167.737 78.6974L171.375 78.9375C171.19 79.8116 170.812 80.5748 170.239 81.2273C169.673 81.8736 168.94 82.3783 168.042 82.7415C167.149 83.0985 166.118 83.277 164.949 83.277ZM174.025 83V68.8182H177.773V71.3203H177.939C178.235 70.4893 178.727 69.8338 179.417 69.3537C180.106 68.8736 180.931 68.6335 181.891 68.6335C182.864 68.6335 183.692 68.8767 184.375 69.3629C185.058 69.843 185.514 70.4955 185.741 71.3203H185.889C186.178 70.5078 186.702 69.8584 187.459 69.3722C188.222 68.8797 189.124 68.6335 190.164 68.6335C191.487 68.6335 192.561 69.0552 193.386 69.8984C194.217 70.7356 194.633 71.9235 194.633 73.4624V83H190.709V74.2379C190.709 73.45 190.499 72.8591 190.081 72.4652C189.662 72.0713 189.139 71.8743 188.511 71.8743C187.797 71.8743 187.24 72.102 186.84 72.5575C186.44 73.0069 186.24 73.6009 186.24 74.3395V83H182.427V74.1548C182.427 73.4593 182.227 72.9053 181.827 72.4929C181.433 72.0805 180.912 71.8743 180.266 71.8743C179.829 71.8743 179.435 71.9851 179.084 72.2067C178.74 72.4221 178.466 72.7268 178.263 73.1207C178.059 73.5085 177.958 73.964 177.958 74.4872V83H174.025ZM204.147 83.277C202.713 83.277 201.473 82.9723 200.426 82.3629C199.386 81.7474 198.583 80.8918 198.017 79.7962C197.45 78.6944 197.167 77.4171 197.167 75.9645C197.167 74.4995 197.45 73.2192 198.017 72.1236C198.583 71.0218 199.386 70.1662 200.426 69.5568C201.473 68.9413 202.713 68.6335 204.147 68.6335C205.581 68.6335 206.819 68.9413 207.859 69.5568C208.905 70.1662 209.712 71.0218 210.278 72.1236C210.844 73.2192 211.127 74.4995 211.127 75.9645C211.127 77.4171 210.844 78.6944 210.278 79.7962C209.712 80.8918 208.905 81.7474 207.859 82.3629C206.819 82.9723 205.581 83.277 204.147 83.277ZM204.166 80.2301C204.818 80.2301 205.363 80.0455 205.8 79.6761C206.237 79.3007 206.566 78.7898 206.788 78.1435C207.016 77.4972 207.129 76.7616 207.129 75.9368C207.129 75.112 207.016 74.3764 206.788 73.7301C206.566 73.0838 206.237 72.5729 205.8 72.1974C205.363 71.822 204.818 71.6342 204.166 71.6342C203.507 71.6342 202.953 71.822 202.504 72.1974C202.061 72.5729 201.725 73.0838 201.497 73.7301C201.276 74.3764 201.165 75.112 201.165 75.9368C201.165 76.7616 201.276 77.4972 201.497 78.1435C201.725 78.7898 202.061 79.3007 202.504 79.6761C202.953 80.0455 203.507 80.2301 204.166 80.2301ZM219.776 83V64.0909H227.237C228.665 64.0909 229.883 64.3464 230.893 64.8572C231.908 65.362 232.681 66.0791 233.21 67.0085C233.746 67.9318 234.013 69.0182 234.013 70.2678C234.013 71.5234 233.743 72.6037 233.201 73.5085C232.659 74.4072 231.875 75.0966 230.847 75.5767C229.825 76.0568 228.588 76.2969 227.135 76.2969H222.14V73.0838H226.489C227.252 73.0838 227.886 72.9792 228.391 72.7699C228.895 72.5606 229.271 72.2467 229.517 71.8281C229.769 71.4096 229.896 70.8894 229.896 70.2678C229.896 69.6399 229.769 69.1106 229.517 68.6797C229.271 68.2488 228.892 67.9226 228.381 67.701C227.877 67.4732 227.24 67.3594 226.47 67.3594H223.774V83H219.776ZM229.988 74.3949L234.688 83H230.274L225.676 74.3949H229.988ZM242.999 83.277C241.541 83.277 240.285 82.9815 239.232 82.3906C238.186 81.7936 237.38 80.9503 236.813 79.8608C236.247 78.7652 235.964 77.4695 235.964 75.9737C235.964 74.5149 236.247 73.2346 236.813 72.1328C237.38 71.031 238.177 70.1723 239.205 69.5568C240.239 68.9413 241.451 68.6335 242.843 68.6335C243.778 68.6335 244.649 68.7843 245.455 69.0859C246.268 69.3814 246.976 69.8277 247.579 70.4247C248.188 71.0218 248.662 71.7727 249.001 72.6776C249.339 73.5762 249.509 74.6288 249.509 75.8352V76.9155H237.534V74.478H245.806C245.806 73.9117 245.683 73.41 245.437 72.973C245.191 72.536 244.849 72.1944 244.412 71.9482C243.981 71.6958 243.48 71.5696 242.907 71.5696C242.31 71.5696 241.781 71.7081 241.319 71.9851C240.864 72.2559 240.507 72.6222 240.248 73.0838C239.99 73.5393 239.857 74.0471 239.851 74.6072V76.9247C239.851 77.6264 239.98 78.2327 240.239 78.7436C240.503 79.2545 240.876 79.6484 241.356 79.9254C241.836 80.2024 242.405 80.3409 243.064 80.3409C243.501 80.3409 243.901 80.2794 244.264 80.1562C244.628 80.0331 244.938 79.8485 245.197 79.6023C245.455 79.3561 245.652 79.0545 245.788 78.6974L249.426 78.9375C249.241 79.8116 248.862 80.5748 248.29 81.2273C247.724 81.8736 246.991 82.3783 246.093 82.7415C245.2 83.0985 244.169 83.277 242.999 83.277ZM261.447 88.3182V80.7287H261.327C261.142 81.1226 260.881 81.5135 260.542 81.9013C260.21 82.2829 259.776 82.5999 259.24 82.8523C258.711 83.1046 258.065 83.2308 257.301 83.2308C256.224 83.2308 255.249 82.9538 254.374 82.3999C253.507 81.8397 252.817 81.018 252.306 79.9347C251.802 78.8452 251.549 77.5095 251.549 75.9276C251.549 74.3026 251.811 72.9515 252.334 71.8743C252.857 70.791 253.553 69.9815 254.421 69.446C255.295 68.9044 256.252 68.6335 257.292 68.6335C258.086 68.6335 258.748 68.7689 259.277 69.0398C259.813 69.3045 260.244 69.6368 260.57 70.0369C260.902 70.4309 261.155 70.8187 261.327 71.2003H261.493V68.8182H265.371V88.3182H261.447ZM258.548 80.1009C259.182 80.1009 259.717 79.9285 260.154 79.5838C260.597 79.233 260.936 78.7436 261.17 78.1158C261.41 77.4879 261.53 76.7524 261.53 75.9091C261.53 75.0658 261.413 74.3333 261.179 73.7116C260.945 73.09 260.607 72.6098 260.164 72.2713C259.72 71.9328 259.182 71.7635 258.548 71.7635C257.901 71.7635 257.357 71.9389 256.914 72.2898C256.47 72.6406 256.135 73.1269 255.907 73.7486C255.679 74.3703 255.566 75.0904 255.566 75.9091C255.566 76.7339 255.679 77.4633 255.907 78.0973C256.141 78.7251 256.477 79.2176 256.914 79.5746C257.357 79.9254 257.901 80.1009 258.548 80.1009ZM277.623 76.9616V68.8182H281.556V83H277.78V80.424H277.632C277.312 81.255 276.78 81.9228 276.035 82.4276C275.296 82.9323 274.395 83.1847 273.33 83.1847C272.382 83.1847 271.548 82.9692 270.828 82.5384C270.107 82.1075 269.544 81.495 269.138 80.701C268.738 79.907 268.535 78.956 268.529 77.848V68.8182H272.462V77.1463C272.468 77.9834 272.693 78.6451 273.136 79.1314C273.579 79.6177 274.173 79.8608 274.918 79.8608C275.392 79.8608 275.835 79.7531 276.247 79.5376C276.66 79.3161 276.992 78.9898 277.244 78.5589C277.503 78.1281 277.629 77.5956 277.623 76.9616ZM291.165 83.277C289.707 83.277 288.451 82.9815 287.398 82.3906C286.352 81.7936 285.546 80.9503 284.979 79.8608C284.413 78.7652 284.13 77.4695 284.13 75.9737C284.13 74.5149 284.413 73.2346 284.979 72.1328C285.546 71.031 286.343 70.1723 287.371 69.5568C288.405 68.9413 289.617 68.6335 291.009 68.6335C291.944 68.6335 292.815 68.7843 293.621 69.0859C294.434 69.3814 295.142 69.8277 295.745 70.4247C296.354 71.0218 296.828 71.7727 297.167 72.6776C297.505 73.5762 297.675 74.6288 297.675 75.8352V76.9155H285.7V74.478H293.972C293.972 73.9117 293.849 73.41 293.603 72.973C293.357 72.536 293.015 72.1944 292.578 71.9482C292.147 71.6958 291.646 71.5696 291.073 71.5696C290.476 71.5696 289.947 71.7081 289.485 71.9851C289.03 72.2559 288.673 72.6222 288.414 73.0838C288.156 73.5393 288.023 74.0471 288.017 74.6072V76.9247C288.017 77.6264 288.146 78.2327 288.405 78.7436C288.67 79.2545 289.042 79.6484 289.522 79.9254C290.002 80.2024 290.571 80.3409 291.23 80.3409C291.667 80.3409 292.067 80.2794 292.43 80.1562C292.794 80.0331 293.104 79.8485 293.363 79.6023C293.621 79.3561 293.818 79.0545 293.954 78.6974L297.592 78.9375C297.407 79.8116 297.028 80.5748 296.456 81.2273C295.89 81.8736 295.157 82.3783 294.259 82.7415C293.366 83.0985 292.335 83.277 291.165 83.277ZM312.041 72.8622L308.44 73.0838C308.379 72.776 308.246 72.4991 308.043 72.2528C307.84 72.0005 307.572 71.8004 307.24 71.6527C306.914 71.4988 306.523 71.4219 306.067 71.4219C305.458 71.4219 304.944 71.5511 304.526 71.8097C304.107 72.062 303.898 72.4006 303.898 72.8253C303.898 73.1638 304.033 73.45 304.304 73.6839C304.575 73.9179 305.04 74.1056 305.698 74.2472L308.265 74.7642C309.644 75.0473 310.672 75.5028 311.349 76.1307C312.026 76.7585 312.364 77.5833 312.364 78.6051C312.364 79.5346 312.09 80.3501 311.543 81.0518C311.001 81.7536 310.256 82.3014 309.308 82.6953C308.366 83.0831 307.28 83.277 306.049 83.277C304.172 83.277 302.676 82.8861 301.562 82.1044C300.454 81.3165 299.804 80.2455 299.614 78.8913L303.482 78.6882C303.599 79.2607 303.882 79.6977 304.332 79.9993C304.781 80.2947 305.357 80.4425 306.058 80.4425C306.748 80.4425 307.302 80.3101 307.72 80.0455C308.145 79.7746 308.36 79.4268 308.366 79.0021C308.36 78.6451 308.21 78.3527 307.914 78.125C307.619 77.8911 307.163 77.7126 306.548 77.5895L304.092 77.1001C302.707 76.8232 301.676 76.343 300.999 75.6598C300.328 74.9766 299.992 74.1056 299.992 73.0469C299.992 72.1359 300.238 71.3511 300.731 70.6925C301.229 70.0339 301.928 69.526 302.827 69.169C303.732 68.812 304.79 68.6335 306.003 68.6335C307.794 68.6335 309.204 69.0121 310.232 69.7692C311.266 70.5263 311.869 71.5573 312.041 72.8622ZM322.384 68.8182V71.7727H313.844V68.8182H322.384ZM315.783 65.4205H319.716V78.642C319.716 79.0052 319.771 79.2884 319.882 79.4915C319.993 79.6884 320.147 79.8269 320.344 79.907C320.547 79.987 320.781 80.027 321.046 80.027C321.23 80.027 321.415 80.0116 321.6 79.9808C321.784 79.9439 321.926 79.9162 322.024 79.8977L322.643 82.8246C322.446 82.8861 322.169 82.9569 321.812 83.0369C321.455 83.1231 321.021 83.1754 320.51 83.1939C319.562 83.2308 318.731 83.1046 318.017 82.8153C317.309 82.526 316.758 82.0767 316.365 81.4673C315.971 80.858 315.777 80.0885 315.783 79.1591V65.4205Z" fill="white"/>
</svg>
