<svg width="210" height="98" viewBox="0 0 210 98" fill="none" xmlns="http://www.w3.org/2000/svg">
<path d="M3 0H50L57.5 29H3V0Z" fill="#145DAB"/>
<path d="M0 69L0 0H30L30 69H0Z" fill="#145DAB"/>
<path d="M50 0L80 29H57.5L50 0Z" fill="#0E4279"/>
<path d="M207 98H160L152.5 69H207V98Z" fill="#145DAB"/>
<path d="M210 29V98H180V29L210 29Z" fill="#145DAB"/>
<path d="M160 98L130 69H152.5L160 98Z" fill="#0E4279"/>
<path d="M30 29H184V69H30V29Z" fill="#223C63"/>
<path d="M67.1477 55V43.3636H71.5114C72.4053 43.3636 73.1553 43.5189 73.7614 43.8295C74.3712 44.1402 74.8314 44.5758 75.142 45.1364C75.4564 45.6932 75.6136 46.3428 75.6136 47.0852C75.6136 47.8314 75.4545 48.4792 75.1364 49.0284C74.822 49.5739 74.358 49.9962 73.7443 50.2955C73.1307 50.5909 72.3769 50.7386 71.483 50.7386H68.375V48.9886H71.1989C71.7216 48.9886 72.1496 48.9167 72.483 48.7727C72.8163 48.625 73.0625 48.411 73.2216 48.1307C73.3845 47.8466 73.4659 47.4981 73.4659 47.0852C73.4659 46.6723 73.3845 46.3201 73.2216 46.0284C73.0587 45.733 72.8106 45.5095 72.4773 45.358C72.1439 45.2027 71.714 45.125 71.1875 45.125H69.2557V55H67.1477ZM73.1591 49.7273L76.0398 55H73.6875L70.858 49.7273H73.1591ZM81.2017 55.1705C80.3267 55.1705 79.571 54.9886 78.9347 54.625C78.3021 54.2576 77.8153 53.7386 77.4744 53.0682C77.1335 52.3939 76.9631 51.6004 76.9631 50.6875C76.9631 49.7898 77.1335 49.0019 77.4744 48.3239C77.8191 47.642 78.3002 47.1117 78.9176 46.733C79.535 46.3504 80.2604 46.1591 81.0938 46.1591C81.6316 46.1591 82.1392 46.2462 82.6165 46.4205C83.0975 46.5909 83.5218 46.8561 83.8892 47.2159C84.2604 47.5758 84.5521 48.0341 84.7642 48.5909C84.9763 49.1439 85.0824 49.803 85.0824 50.5682V51.1989H77.929V49.8125H83.1108C83.107 49.4186 83.0218 49.0682 82.8551 48.7614C82.6884 48.4508 82.4555 48.2064 82.1562 48.0284C81.8608 47.8504 81.5161 47.7614 81.1222 47.7614C80.7017 47.7614 80.3324 47.8636 80.0142 48.0682C79.696 48.2689 79.4479 48.5341 79.2699 48.8636C79.0956 49.1894 79.0066 49.5473 79.0028 49.9375V51.1477C79.0028 51.6553 79.0956 52.0909 79.2812 52.4545C79.4669 52.8144 79.7263 53.0909 80.0597 53.2841C80.393 53.4735 80.7831 53.5682 81.2301 53.5682C81.5294 53.5682 81.8002 53.5265 82.0426 53.4432C82.285 53.3561 82.4953 53.2292 82.6733 53.0625C82.8513 52.8958 82.9858 52.6894 83.0767 52.4432L84.9972 52.6591C84.8759 53.1667 84.6449 53.6098 84.304 53.9886C83.9669 54.3636 83.535 54.6553 83.0085 54.8636C82.482 55.0682 81.8797 55.1705 81.2017 55.1705ZM89.3338 55.1761C88.7808 55.1761 88.2827 55.0777 87.8395 54.8807C87.4001 54.6799 87.0516 54.3845 86.794 53.9943C86.5402 53.6042 86.4134 53.1231 86.4134 52.5511C86.4134 52.0587 86.5043 51.6515 86.6861 51.3295C86.8679 51.0076 87.116 50.75 87.4304 50.5568C87.7448 50.3636 88.099 50.2178 88.4929 50.1193C88.8906 50.017 89.3016 49.9432 89.7259 49.8977C90.2372 49.8447 90.652 49.7973 90.9702 49.7557C91.2884 49.7102 91.5194 49.642 91.6634 49.5511C91.8111 49.4564 91.8849 49.3106 91.8849 49.1136V49.0795C91.8849 48.6515 91.758 48.3201 91.5043 48.0852C91.2505 47.8504 90.8849 47.733 90.4077 47.733C89.9039 47.733 89.5043 47.8428 89.2088 48.0625C88.9171 48.2822 88.7202 48.5417 88.6179 48.8409L86.6974 48.5682C86.849 48.0379 87.099 47.5947 87.4474 47.2386C87.7959 46.8788 88.2221 46.6098 88.7259 46.4318C89.2296 46.25 89.7865 46.1591 90.3963 46.1591C90.8168 46.1591 91.2353 46.2083 91.652 46.3068C92.0687 46.4053 92.4493 46.5682 92.794 46.7955C93.1387 47.0189 93.4152 47.3239 93.6236 47.7102C93.8357 48.0966 93.9418 48.5795 93.9418 49.1591V55H91.9645V53.8011H91.8963C91.7713 54.0436 91.5952 54.2708 91.3679 54.483C91.1444 54.6913 90.8622 54.8598 90.5213 54.9886C90.1842 55.1136 89.7884 55.1761 89.3338 55.1761ZM89.8679 53.6648C90.2808 53.6648 90.6387 53.5833 90.9418 53.4205C91.2448 53.2538 91.4777 53.0341 91.6406 52.7614C91.8073 52.4886 91.8906 52.1913 91.8906 51.8693V50.8409C91.8262 50.8939 91.7164 50.9432 91.5611 50.9886C91.4096 51.0341 91.2391 51.0739 91.0497 51.108C90.8603 51.142 90.6728 51.1723 90.4872 51.1989C90.3016 51.2254 90.1406 51.2481 90.0043 51.267C89.6974 51.3087 89.4228 51.3769 89.1804 51.4716C88.938 51.5663 88.7467 51.6989 88.6065 51.8693C88.4664 52.036 88.3963 52.2519 88.3963 52.517C88.3963 52.8958 88.5346 53.1818 88.8111 53.375C89.0876 53.5682 89.4399 53.6648 89.8679 53.6648ZM99.2486 55.1534C98.563 55.1534 97.9493 54.9773 97.4077 54.625C96.866 54.2727 96.438 53.7614 96.1236 53.0909C95.8092 52.4205 95.652 51.6061 95.652 50.6477C95.652 49.678 95.8111 48.8598 96.1293 48.1932C96.4512 47.5227 96.8849 47.017 97.4304 46.6761C97.9759 46.3314 98.5838 46.1591 99.2543 46.1591C99.7656 46.1591 100.186 46.2462 100.516 46.4205C100.845 46.5909 101.107 46.7973 101.3 47.0398C101.493 47.2784 101.643 47.5038 101.749 47.7159H101.834V43.3636H103.896V55H101.874V53.625H101.749C101.643 53.8371 101.489 54.0625 101.288 54.3011C101.088 54.536 100.822 54.7367 100.493 54.9034C100.163 55.0701 99.7486 55.1534 99.2486 55.1534ZM99.8224 53.4659C100.258 53.4659 100.629 53.3485 100.936 53.1136C101.243 52.875 101.476 52.5436 101.635 52.1193C101.794 51.6951 101.874 51.2008 101.874 50.6364C101.874 50.072 101.794 49.5814 101.635 49.1648C101.48 48.7481 101.249 48.4242 100.942 48.1932C100.639 47.9621 100.266 47.8466 99.8224 47.8466C99.3641 47.8466 98.9815 47.9659 98.6747 48.2045C98.3679 48.4432 98.1368 48.7727 97.9815 49.1932C97.8262 49.6136 97.7486 50.0947 97.7486 50.6364C97.7486 51.1818 97.8262 51.6686 97.9815 52.0966C98.1406 52.5208 98.3736 52.8561 98.6804 53.1023C98.991 53.3447 99.3717 53.4659 99.8224 53.4659ZM110.148 43.3636H112.727L116.182 51.7955H116.318L119.773 43.3636H122.352V55H120.33V47.0057H120.222L117.006 54.9659H115.494L112.278 46.9886H112.17V55H110.148V43.3636ZM128.364 55.1705C127.511 55.1705 126.773 54.983 126.148 54.608C125.523 54.233 125.038 53.7083 124.693 53.0341C124.352 52.3598 124.182 51.572 124.182 50.6705C124.182 49.7689 124.352 48.9792 124.693 48.3011C125.038 47.6231 125.523 47.0966 126.148 46.7216C126.773 46.3466 127.511 46.1591 128.364 46.1591C129.216 46.1591 129.955 46.3466 130.58 46.7216C131.205 47.0966 131.688 47.6231 132.028 48.3011C132.373 48.9792 132.545 49.7689 132.545 50.6705C132.545 51.572 132.373 52.3598 132.028 53.0341C131.688 53.7083 131.205 54.233 130.58 54.608C129.955 54.983 129.216 55.1705 128.364 55.1705ZM128.375 53.5227C128.837 53.5227 129.223 53.3958 129.534 53.142C129.845 52.8845 130.076 52.5398 130.227 52.108C130.383 51.6761 130.46 51.1951 130.46 50.6648C130.46 50.1307 130.383 49.6477 130.227 49.2159C130.076 48.7803 129.845 48.4337 129.534 48.1761C129.223 47.9186 128.837 47.7898 128.375 47.7898C127.902 47.7898 127.508 47.9186 127.193 48.1761C126.883 48.4337 126.65 48.7803 126.494 49.2159C126.343 49.6477 126.267 50.1307 126.267 50.6648C126.267 51.1951 126.343 51.6761 126.494 52.108C126.65 52.5398 126.883 52.8845 127.193 53.142C127.508 53.3958 127.902 53.5227 128.375 53.5227ZM134.291 55V46.2727H136.286V47.7273H136.376C136.536 47.2235 136.808 46.8352 137.195 46.5625C137.585 46.286 138.03 46.1477 138.53 46.1477C138.643 46.1477 138.77 46.1534 138.911 46.1648C139.054 46.1723 139.174 46.1856 139.268 46.2045V48.0966C139.181 48.0663 139.043 48.0398 138.854 48.017C138.668 47.9905 138.488 47.9773 138.314 47.9773C137.939 47.9773 137.602 48.0587 137.303 48.2216C137.007 48.3807 136.774 48.6023 136.604 48.8864C136.433 49.1705 136.348 49.4981 136.348 49.8693V55H134.291ZM144.139 55.1705C143.264 55.1705 142.509 54.9886 141.872 54.625C141.24 54.2576 140.753 53.7386 140.412 53.0682C140.071 52.3939 139.901 51.6004 139.901 50.6875C139.901 49.7898 140.071 49.0019 140.412 48.3239C140.757 47.642 141.238 47.1117 141.855 46.733C142.473 46.3504 143.198 46.1591 144.031 46.1591C144.569 46.1591 145.077 46.2462 145.554 46.4205C146.035 46.5909 146.459 46.8561 146.827 47.2159C147.198 47.5758 147.49 48.0341 147.702 48.5909C147.914 49.1439 148.02 49.803 148.02 50.5682V51.1989H140.866V49.8125H146.048C146.045 49.4186 145.959 49.0682 145.793 48.7614C145.626 48.4508 145.393 48.2064 145.094 48.0284C144.798 47.8504 144.454 47.7614 144.06 47.7614C143.639 47.7614 143.27 47.8636 142.952 48.0682C142.634 48.2689 142.385 48.5341 142.207 48.8636C142.033 49.1894 141.944 49.5473 141.94 49.9375V51.1477C141.94 51.6553 142.033 52.0909 142.219 52.4545C142.404 52.8144 142.664 53.0909 142.997 53.2841C143.33 53.4735 143.721 53.5682 144.168 53.5682C144.467 53.5682 144.738 53.5265 144.98 53.4432C145.223 53.3561 145.433 53.2292 145.611 53.0625C145.789 52.8958 145.923 52.6894 146.014 52.4432L147.935 52.6591C147.813 53.1667 147.582 53.6098 147.241 53.9886C146.904 54.3636 146.473 54.6553 145.946 54.8636C145.42 55.0682 144.817 55.1705 144.139 55.1705Z" fill="white"/>
</svg>
