<?xml version="1.0" encoding="UTF-8"?>
<svg id="Layer_2" data-name="Layer 2" xmlns="http://www.w3.org/2000/svg" viewBox="0 0 55.86 11.57">
  <defs>
    <style>
      .cls-1 {
        fill: #105dab;
      }

      .cls-2 {
        fill: #231f20;
      }
    </style>
  </defs>
  <g id="Layer_1-2" data-name="Layer 1">
    <g>
      <path class="cls-1" d="M5.1,6.6H2.62v2.57h2.79v2.26H0V.05H5.22V2.31H2.62v2.13h2.48v2.16Z"/>
      <path class="cls-1" d="M6.96,.22c.73-.15,1.72-.22,2.79-.22s2.18,.1,3.04,.81c.66,.54,.91,1.34,.91,2.13,0,.95-.47,1.94-1.6,2.47v.07c1.32,.39,1.98,1.49,1.98,2.64,0,.95-.3,1.67-.84,2.23-.69,.74-1.89,1.2-4.05,1.2-.84,0-1.64-.05-2.21-.14V.22Zm2.6,4.44h.42c.69,0,1.17-.61,1.17-1.42,0-.74-.35-1.32-1.05-1.32-.22,0-.41,.02-.54,.07v2.67Zm0,4.85c.14,.03,.27,.03,.42,.03,.71,0,1.39-.46,1.39-1.47s-.64-1.49-1.37-1.49h-.44v2.92Z"/>
      <path class="cls-1" d="M21.05,2.72h-2.89l-.17,1.55h.3c.42,.02,1.4,.22,2.06,.83,.62,.59,.96,1.44,.96,2.53,0,2.11-1.44,3.94-4.04,3.94-.83,0-1.71-.2-2.14-.42l.35-2.06c.44,.2,1,.35,1.59,.35,1.08,0,1.67-.62,1.67-1.57,0-1.37-1.13-1.76-2.33-1.76-.27,0-.52,0-.76,.03l.57-5.69h4.81V2.72Z"/>
    </g>
    <g>
      <path class="cls-1" d="M25.65,.46V5.38h-.95V.46h.95Z"/>
      <path class="cls-1" d="M26.5,5.38V.46h.87l.75,1.93c.15,.38,.38,1.01,.52,1.44h.01c-.03-.52-.09-1.37-.09-2.28V.46h.83V5.38h-.87l-.75-1.87c-.16-.42-.38-1.04-.49-1.48h-.01c.02,.5,.06,1.26,.06,2.24v1.11h-.83Z"/>
      <path class="cls-1" d="M30.93,5.38L29.83,.46h1.05l.35,2.12c.09,.53,.19,1.13,.25,1.71h.01c.07-.58,.15-1.17,.23-1.73l.33-2.1h1.04l-1.12,4.92h-1.07Z"/>
      <path class="cls-1" d="M35.59,3.22h-1.12v1.33h1.26v.83h-2.21V.46h2.12v.83h-1.17v1.13h1.12v.79Z"/>
      <path class="cls-1" d="M36.28,4.4c.2,.11,.53,.19,.8,.19,.45,0,.67-.23,.67-.55,0-.36-.22-.53-.63-.8-.67-.41-.92-.93-.92-1.37,0-.79,.52-1.44,1.54-1.44,.32,0,.62,.09,.77,.18l-.15,.82c-.14-.09-.35-.17-.62-.17-.41,0-.6,.25-.6,.51,0,.29,.15,.45,.67,.77,.65,.39,.88,.89,.88,1.41,0,.9-.66,1.49-1.62,1.49-.39,0-.78-.1-.94-.2l.14-.82Z"/>
      <path class="cls-1" d="M39.78,1.34h-.86V.46h2.68v.88h-.87V5.38h-.95V1.34Z"/>
      <path class="cls-1" d="M45.09,3.65c-.02-.47-.06-1.1-.04-1.63h-.02c-.09,.53-.22,1.13-.31,1.51l-.42,1.76h-.67l-.41-1.73c-.09-.39-.22-1.01-.3-1.54h-.02c-.01,.53-.04,1.15-.07,1.64l-.08,1.71h-.82l.36-4.92h1l.39,1.78c.14,.62,.26,1.17,.35,1.72h.01c.07-.55,.18-1.1,.31-1.72l.39-1.78h1l.3,4.92h-.85l-.09-1.72Z"/>
      <path class="cls-1" d="M48.79,3.22h-1.12v1.33h1.26v.83h-2.21V.46h2.12v.83h-1.17v1.13h1.12v.79Z"/>
      <path class="cls-1" d="M49.58,5.38V.46h.87l.75,1.93c.14,.38,.38,1.01,.52,1.44h.01c-.03-.52-.09-1.37-.09-2.28V.46h.83V5.38h-.87l-.75-1.87c-.16-.42-.38-1.04-.49-1.48h-.01c.02,.5,.06,1.26,.06,2.24v1.11h-.83Z"/>
      <path class="cls-1" d="M53.86,1.34h-.86V.46h2.68v.88h-.87V5.38h-.95V1.34Z"/>
    </g>
    <g>
      <path class="cls-2" d="M27.33,9.98c-.02-.42-.05-.99-.04-1.46h-.02c-.08,.47-.2,1.01-.28,1.35l-.38,1.58h-.61l-.36-1.55c-.08-.35-.2-.9-.27-1.38h-.02c-.01,.48-.04,1.03-.07,1.47l-.07,1.53h-.73l.32-4.41h.9l.35,1.6c.12,.56,.23,1.05,.31,1.54h.01c.06-.49,.16-.99,.28-1.54l.34-1.6h.9l.27,4.41h-.76l-.08-1.54Z"/>
      <path class="cls-2" d="M29.49,10.52l-.19,1.01h-.83l.95-4.41h1.02l.85,4.41h-.83l-.19-1.01h-.79Zm.71-.67l-.14-.92c-.05-.27-.1-.71-.14-1h-.02c-.05,.29-.11,.75-.16,1.01l-.16,.92h.62Z"/>
      <path class="cls-2" d="M31.76,11.52V7.12h.78l.68,1.73c.13,.34,.34,.91,.47,1.29h.01c-.03-.46-.08-1.23-.08-2.04v-.97h.75v4.41h-.78l-.67-1.67c-.14-.37-.34-.93-.44-1.33h-.01c.02,.45,.05,1.13,.05,2.01v.99h-.75Z"/>
      <path class="cls-2" d="M35.81,10.52l-.19,1.01h-.83l.95-4.41h1.02l.85,4.41h-.83l-.19-1.01h-.79Zm.71-.67l-.14-.92c-.05-.27-.1-.71-.14-1h-.02c-.05,.29-.11,.75-.16,1.01l-.16,.92h.62Z"/>
      <path class="cls-2" d="M40.52,11.41c-.19,.08-.59,.16-.91,.16-.5,0-.88-.14-1.17-.44-.38-.37-.58-1.02-.57-1.78,.02-1.6,.93-2.27,1.86-2.27,.33,0,.58,.07,.72,.13l-.15,.74c-.12-.07-.29-.1-.5-.1-.58,0-1.04,.4-1.04,1.55,0,1.06,.41,1.44,.81,1.44,.08,0,.14,0,.17-.02v-1.07h-.39v-.7h1.18v2.35Z"/>
      <path class="cls-2" d="M43,9.59h-1v1.19h1.13v.74h-1.98V7.12h1.9v.75h-1.05v1.01h1v.71Z"/>
      <path class="cls-2" d="M46.39,9.98c-.02-.42-.05-.99-.04-1.46h-.02c-.08,.47-.19,1.01-.28,1.35l-.38,1.58h-.6l-.36-1.55c-.08-.35-.2-.9-.27-1.38h-.02c-.01,.48-.04,1.03-.06,1.47l-.07,1.53h-.73l.32-4.41h.9l.35,1.6c.12,.56,.23,1.05,.31,1.54h.01c.07-.49,.16-.99,.28-1.54l.34-1.6h.9l.27,4.41h-.76l-.08-1.54Z"/>
      <path class="cls-2" d="M49.7,9.59h-1v1.19h1.13v.74h-1.98V7.12h1.91v.75h-1.05v1.01h1v.71Z"/>
      <path class="cls-2" d="M50.4,11.52V7.12h.78l.68,1.73c.13,.34,.34,.91,.47,1.29h.01c-.03-.46-.08-1.23-.08-2.04v-.97h.75v4.41h-.78l-.67-1.67c-.14-.37-.34-.93-.44-1.33h-.01c.02,.45,.05,1.13,.05,2.01v.99h-.75Z"/>
      <path class="cls-2" d="M54.23,7.91h-.77v-.79h2.41v.79h-.78v3.62h-.85v-3.62Z"/>
    </g>
  </g>
</svg>